<svg xmlns="http://www.w3.org/2000/svg" xmlns:xlink="http://www.w3.org/1999/xlink" width="98.96" height="14.94" viewBox="0 0 98.96 14.94">
  <defs>
    <linearGradient id="linear-gradient" x1="1.118" y1="0.5" x2="0.179" y2="0.5" gradientUnits="objectBoundingBox">
      <stop offset="0" stop-color="#afc8ff"/>
      <stop offset="1" stop-color="#004eff"/>
    </linearGradient>
  </defs>
  <path id="gamenet_logo" d="M11.7-1.62,12.02,0h2V-7.72h-6v2.34h3.16a3.434,3.434,0,0,1-.99,2.29,3.409,3.409,0,0,1-2.41.79,3.666,3.666,0,0,1-1.8-.41A3.434,3.434,0,0,1,4.78-3.8a4.729,4.729,0,0,1-.67-1.53A7.269,7.269,0,0,1,3.9-7.08,7.814,7.814,0,0,1,4.11-8.9a4.82,4.82,0,0,1,.67-1.57,3.4,3.4,0,0,1,1.2-1.1,3.666,3.666,0,0,1,1.8-.41,3.141,3.141,0,0,1,1.94.6,3,3,0,0,1,1.08,1.8h3a5.331,5.331,0,0,0-.66-2.16,5.312,5.312,0,0,0-1.37-1.58,6.035,6.035,0,0,0-1.86-.97,6.938,6.938,0,0,0-2.13-.33,7.213,7.213,0,0,0-2.95.58,6.31,6.31,0,0,0-2.21,1.6,7.134,7.134,0,0,0-1.38,2.39A8.923,8.923,0,0,0,.76-7.08a8.625,8.625,0,0,0,.48,2.91A6.95,6.95,0,0,0,2.62-1.82,6.321,6.321,0,0,0,4.83-.25,7.322,7.322,0,0,0,7.78.32,5.262,5.262,0,0,0,9.84-.11,4.706,4.706,0,0,0,11.7-1.62Zm8.46-3.9,1.86-5.24h.04l1.8,5.24Zm.3-8.76L15.06,0h3.16l1.12-3.18h5.34L25.76,0h3.26L23.68-14.28Zm9.8,0V0H33.2V-10.02h.04L36.74,0h2.42l3.5-10.12h.04V0h2.94V-14.28H41.22L38.06-4.46h-.04l-3.34-9.82Zm18.14,0V0H59.24V-2.64h-7.7v-3.5h6.92V-8.58H51.54v-3.06h7.54v-2.64Zm12.96,0V0H64.3V-9.56h.04L70.28,0h3.14V-14.28H70.48V-4.7h-.04l-5.96-9.58Zm14.82,0V0H87.02V-2.64h-7.7v-3.5h6.92V-8.58H79.32v-3.06h7.54v-2.64ZM92.3-11.64V0h3.14V-11.64h4.28v-2.64H88.02v2.64Z" transform="translate(-0.76 14.62)" fill="url(#linear-gradient)"/>
</svg>
